<mxfile host="Electron" modified="2024-12-02T15:24:27.923Z" agent="Mozilla/5.0 (Windows NT 10.0; Win64; x64) AppleWebKit/537.36 (KHTML, like Gecko) draw.io/22.0.2 Chrome/114.0.5735.289 Electron/25.8.4 Safari/537.36" etag="aM3YsYStNyeFwEHUEAVX" version="22.0.2" type="device">
  <diagram name="Page-1" id="Llj7YxFpY2g9H0300lcL">
    <mxGraphModel dx="2514" dy="993" grid="1" gridSize="10" guides="1" tooltips="1" connect="1" arrows="1" fold="1" page="1" pageScale="1" pageWidth="827" pageHeight="1169" math="0" shadow="0">
      <root>
        <mxCell id="0" />
        <mxCell id="1" parent="0" />
        <mxCell id="WfAL3rUn8waLh1sTcTxn-14" style="edgeStyle=orthogonalEdgeStyle;rounded=0;orthogonalLoop=1;jettySize=auto;html=1;entryX=1;entryY=0.5;entryDx=0;entryDy=0;endArrow=none;endFill=0;endSize=22;startSize=22;startArrow=diamondThin;startFill=0;" edge="1" parent="1" source="WfAL3rUn8waLh1sTcTxn-1" target="WfAL3rUn8waLh1sTcTxn-6">
          <mxGeometry relative="1" as="geometry" />
        </mxCell>
        <mxCell id="WfAL3rUn8waLh1sTcTxn-1" value="Robot" style="swimlane;whiteSpace=wrap;html=1;" vertex="1" parent="1">
          <mxGeometry x="200" y="170" width="200" height="200" as="geometry">
            <mxRectangle x="200" y="170" width="80" height="30" as="alternateBounds" />
          </mxGeometry>
        </mxCell>
        <mxCell id="WfAL3rUn8waLh1sTcTxn-13" value="-RobotController: controller" style="text;html=1;align=center;verticalAlign=middle;resizable=0;points=[];autosize=1;strokeColor=none;fillColor=none;" vertex="1" parent="WfAL3rUn8waLh1sTcTxn-1">
          <mxGeometry x="-5" y="50" width="170" height="30" as="geometry" />
        </mxCell>
        <mxCell id="WfAL3rUn8waLh1sTcTxn-8" value="+EventHandler: eventHandler" style="text;html=1;align=center;verticalAlign=middle;resizable=0;points=[];autosize=1;strokeColor=none;fillColor=none;" vertex="1" parent="WfAL3rUn8waLh1sTcTxn-1">
          <mxGeometry x="-5" y="28" width="180" height="30" as="geometry" />
        </mxCell>
        <mxCell id="WfAL3rUn8waLh1sTcTxn-52" value="+EmergancyStop(): void" style="text;html=1;align=center;verticalAlign=middle;resizable=0;points=[];autosize=1;strokeColor=none;fillColor=none;" vertex="1" parent="WfAL3rUn8waLh1sTcTxn-1">
          <mxGeometry y="70" width="150" height="30" as="geometry" />
        </mxCell>
        <mxCell id="WfAL3rUn8waLh1sTcTxn-53" value="- boolean IsStopped" style="text;html=1;align=center;verticalAlign=middle;resizable=0;points=[];autosize=1;strokeColor=none;fillColor=none;" vertex="1" parent="WfAL3rUn8waLh1sTcTxn-1">
          <mxGeometry y="85" width="130" height="30" as="geometry" />
        </mxCell>
        <mxCell id="WfAL3rUn8waLh1sTcTxn-15" style="edgeStyle=orthogonalEdgeStyle;rounded=0;orthogonalLoop=1;jettySize=auto;html=1;entryX=1;entryY=0.5;entryDx=0;entryDy=0;endSize=22;endArrow=diamondThin;endFill=1;exitX=0;exitY=0.5;exitDx=0;exitDy=0;" edge="1" parent="1" source="WfAL3rUn8waLh1sTcTxn-35" target="WfAL3rUn8waLh1sTcTxn-1">
          <mxGeometry relative="1" as="geometry">
            <mxPoint x="490" y="270" as="sourcePoint" />
          </mxGeometry>
        </mxCell>
        <mxCell id="WfAL3rUn8waLh1sTcTxn-16" style="edgeStyle=orthogonalEdgeStyle;rounded=0;orthogonalLoop=1;jettySize=auto;html=1;entryX=0.786;entryY=-0.002;entryDx=0;entryDy=0;entryPerimeter=0;fillColor=#60a917;strokeColor=#2D7600;endSize=22;endArrow=none;endFill=0;startArrow=diamondThin;startFill=0;startSize=22;" edge="1" parent="1" target="WfAL3rUn8waLh1sTcTxn-6">
          <mxGeometry relative="1" as="geometry">
            <mxPoint x="120" y="310" as="targetPoint" />
            <mxPoint x="420" y="500" as="sourcePoint" />
            <Array as="points">
              <mxPoint x="420" y="500" />
              <mxPoint x="420" y="130" />
              <mxPoint x="77" y="130" />
            </Array>
          </mxGeometry>
        </mxCell>
        <mxCell id="WfAL3rUn8waLh1sTcTxn-10" style="edgeStyle=orthogonalEdgeStyle;rounded=0;orthogonalLoop=1;jettySize=auto;html=1;entryX=0.5;entryY=0;entryDx=0;entryDy=0;endArrow=none;endFill=0;" edge="1" parent="1" source="WfAL3rUn8waLh1sTcTxn-4" target="WfAL3rUn8waLh1sTcTxn-6">
          <mxGeometry relative="1" as="geometry" />
        </mxCell>
        <mxCell id="WfAL3rUn8waLh1sTcTxn-11" style="edgeStyle=orthogonalEdgeStyle;rounded=0;orthogonalLoop=1;jettySize=auto;html=1;entryX=0.5;entryY=0;entryDx=0;entryDy=0;endArrow=none;endFill=0;" edge="1" parent="1" source="WfAL3rUn8waLh1sTcTxn-4" target="WfAL3rUn8waLh1sTcTxn-5">
          <mxGeometry relative="1" as="geometry" />
        </mxCell>
        <mxCell id="WfAL3rUn8waLh1sTcTxn-12" style="edgeStyle=orthogonalEdgeStyle;rounded=0;orthogonalLoop=1;jettySize=auto;html=1;entryX=0.5;entryY=0;entryDx=0;entryDy=0;endArrow=none;endFill=0;" edge="1" parent="1" source="WfAL3rUn8waLh1sTcTxn-4" target="WfAL3rUn8waLh1sTcTxn-1">
          <mxGeometry relative="1" as="geometry" />
        </mxCell>
        <mxCell id="WfAL3rUn8waLh1sTcTxn-4" value="Robot&lt;br&gt;program.cs" style="rounded=1;whiteSpace=wrap;html=1;" vertex="1" parent="1">
          <mxGeometry x="100" width="120" height="60" as="geometry" />
        </mxCell>
        <mxCell id="WfAL3rUn8waLh1sTcTxn-28" style="edgeStyle=orthogonalEdgeStyle;rounded=0;orthogonalLoop=1;jettySize=auto;html=1;endSize=22;endArrow=none;endFill=0;startArrow=diamondThin;startFill=0;startSize=22;" edge="1" parent="1" source="WfAL3rUn8waLh1sTcTxn-5" target="WfAL3rUn8waLh1sTcTxn-6">
          <mxGeometry relative="1" as="geometry" />
        </mxCell>
        <mxCell id="WfAL3rUn8waLh1sTcTxn-5" value="MQTT client" style="swimlane;whiteSpace=wrap;html=1;" vertex="1" parent="1">
          <mxGeometry x="-400" y="170" width="240" height="200" as="geometry" />
        </mxCell>
        <mxCell id="WfAL3rUn8waLh1sTcTxn-29" value="- MqttConnection: conn" style="text;html=1;align=center;verticalAlign=middle;resizable=0;points=[];autosize=1;strokeColor=none;fillColor=none;" vertex="1" parent="WfAL3rUn8waLh1sTcTxn-5">
          <mxGeometry y="20" width="150" height="30" as="geometry" />
        </mxCell>
        <mxCell id="WfAL3rUn8waLh1sTcTxn-30" value="+ EventHandler: eventhandler" style="text;html=1;align=center;verticalAlign=middle;resizable=0;points=[];autosize=1;strokeColor=none;fillColor=none;" vertex="1" parent="WfAL3rUn8waLh1sTcTxn-5">
          <mxGeometry y="40" width="180" height="30" as="geometry" />
        </mxCell>
        <mxCell id="WfAL3rUn8waLh1sTcTxn-31" value="+ SendMqttMessage(string, string): void" style="text;html=1;align=center;verticalAlign=middle;resizable=0;points=[];autosize=1;strokeColor=none;fillColor=none;" vertex="1" parent="WfAL3rUn8waLh1sTcTxn-5">
          <mxGeometry y="60" width="240" height="30" as="geometry" />
        </mxCell>
        <mxCell id="WfAL3rUn8waLh1sTcTxn-18" style="edgeStyle=orthogonalEdgeStyle;rounded=0;orthogonalLoop=1;jettySize=auto;html=1;entryX=0.5;entryY=0;entryDx=0;entryDy=0;endSize=22;endArrow=none;endFill=0;startArrow=diamondThin;startFill=1;startSize=22;" edge="1" parent="1" source="WfAL3rUn8waLh1sTcTxn-6" target="WfAL3rUn8waLh1sTcTxn-7">
          <mxGeometry relative="1" as="geometry" />
        </mxCell>
        <mxCell id="WfAL3rUn8waLh1sTcTxn-6" value="EventHandler" style="swimlane;whiteSpace=wrap;html=1;" vertex="1" parent="1">
          <mxGeometry x="-80" y="170" width="200" height="200" as="geometry" />
        </mxCell>
        <mxCell id="WfAL3rUn8waLh1sTcTxn-17" value="-List&amp;lt;Event&amp;gt; Callbacks" style="text;html=1;align=center;verticalAlign=middle;resizable=0;points=[];autosize=1;strokeColor=none;fillColor=none;" vertex="1" parent="WfAL3rUn8waLh1sTcTxn-6">
          <mxGeometry y="28" width="150" height="30" as="geometry" />
        </mxCell>
        <mxCell id="WfAL3rUn8waLh1sTcTxn-19" value="- int LastId" style="text;html=1;align=center;verticalAlign=middle;resizable=0;points=[];autosize=1;strokeColor=none;fillColor=none;" vertex="1" parent="WfAL3rUn8waLh1sTcTxn-6">
          <mxGeometry y="50" width="80" height="30" as="geometry" />
        </mxCell>
        <mxCell id="WfAL3rUn8waLh1sTcTxn-24" value="+ Emit(string, object): void" style="text;html=1;align=center;verticalAlign=middle;resizable=0;points=[];autosize=1;strokeColor=none;fillColor=none;" vertex="1" parent="WfAL3rUn8waLh1sTcTxn-6">
          <mxGeometry y="70" width="160" height="30" as="geometry" />
        </mxCell>
        <mxCell id="WfAL3rUn8waLh1sTcTxn-25" value="+ On(string, object, Action): int" style="text;html=1;align=center;verticalAlign=middle;resizable=0;points=[];autosize=1;strokeColor=none;fillColor=none;" vertex="1" parent="WfAL3rUn8waLh1sTcTxn-6">
          <mxGeometry y="85" width="180" height="30" as="geometry" />
        </mxCell>
        <mxCell id="WfAL3rUn8waLh1sTcTxn-26" value="+ Off(int): void" style="text;html=1;align=center;verticalAlign=middle;resizable=0;points=[];autosize=1;strokeColor=none;fillColor=none;" vertex="1" parent="WfAL3rUn8waLh1sTcTxn-6">
          <mxGeometry x="-5" y="110" width="100" height="30" as="geometry" />
        </mxCell>
        <mxCell id="WfAL3rUn8waLh1sTcTxn-27" value="+ Unsubscribe(object): void" style="text;html=1;align=center;verticalAlign=middle;resizable=0;points=[];autosize=1;strokeColor=none;fillColor=none;" vertex="1" parent="WfAL3rUn8waLh1sTcTxn-6">
          <mxGeometry x="-5" y="130" width="170" height="30" as="geometry" />
        </mxCell>
        <mxCell id="WfAL3rUn8waLh1sTcTxn-7" value="Event" style="swimlane;whiteSpace=wrap;html=1;" vertex="1" parent="1">
          <mxGeometry x="-220" y="450" width="200" height="200" as="geometry">
            <mxRectangle x="-220" y="450" width="70" height="30" as="alternateBounds" />
          </mxGeometry>
        </mxCell>
        <mxCell id="WfAL3rUn8waLh1sTcTxn-20" value="+ int Id" style="text;html=1;align=center;verticalAlign=middle;resizable=0;points=[];autosize=1;strokeColor=none;fillColor=none;" vertex="1" parent="WfAL3rUn8waLh1sTcTxn-7">
          <mxGeometry y="28" width="60" height="30" as="geometry" />
        </mxCell>
        <mxCell id="WfAL3rUn8waLh1sTcTxn-21" value="+ string EventName" style="text;html=1;align=center;verticalAlign=middle;resizable=0;points=[];autosize=1;strokeColor=none;fillColor=none;" vertex="1" parent="WfAL3rUn8waLh1sTcTxn-7">
          <mxGeometry y="50" width="130" height="30" as="geometry" />
        </mxCell>
        <mxCell id="WfAL3rUn8waLh1sTcTxn-22" value="+ object Caller" style="text;html=1;align=center;verticalAlign=middle;resizable=0;points=[];autosize=1;strokeColor=none;fillColor=none;" vertex="1" parent="WfAL3rUn8waLh1sTcTxn-7">
          <mxGeometry y="70" width="100" height="30" as="geometry" />
        </mxCell>
        <mxCell id="WfAL3rUn8waLh1sTcTxn-23" value="+ Action Callback" style="text;html=1;align=center;verticalAlign=middle;resizable=0;points=[];autosize=1;strokeColor=none;fillColor=none;" vertex="1" parent="WfAL3rUn8waLh1sTcTxn-7">
          <mxGeometry y="90" width="120" height="30" as="geometry" />
        </mxCell>
        <mxCell id="WfAL3rUn8waLh1sTcTxn-32" value="Broker" style="ellipse;shape=cloud;whiteSpace=wrap;html=1;" vertex="1" parent="1">
          <mxGeometry x="-640" y="210" width="120" height="80" as="geometry" />
        </mxCell>
        <mxCell id="WfAL3rUn8waLh1sTcTxn-33" style="edgeStyle=orthogonalEdgeStyle;rounded=0;orthogonalLoop=1;jettySize=auto;html=1;entryX=0.928;entryY=0.498;entryDx=0;entryDy=0;entryPerimeter=0;endArrow=none;endFill=0;" edge="1" parent="1" source="WfAL3rUn8waLh1sTcTxn-5" target="WfAL3rUn8waLh1sTcTxn-32">
          <mxGeometry relative="1" as="geometry" />
        </mxCell>
        <mxCell id="WfAL3rUn8waLh1sTcTxn-35" value="MovementController: RobotController" style="swimlane;whiteSpace=wrap;html=1;" vertex="1" parent="1">
          <mxGeometry x="560" y="170" width="250" height="279" as="geometry">
            <mxRectangle x="560" y="170" width="260" height="30" as="alternateBounds" />
          </mxGeometry>
        </mxCell>
        <mxCell id="WfAL3rUn8waLh1sTcTxn-42" value="-&amp;nbsp; object WheelConfiguration" style="text;html=1;align=center;verticalAlign=middle;resizable=0;points=[];autosize=1;strokeColor=none;fillColor=none;" vertex="1" parent="WfAL3rUn8waLh1sTcTxn-35">
          <mxGeometry y="28" width="170" height="30" as="geometry" />
        </mxCell>
        <mxCell id="WfAL3rUn8waLh1sTcTxn-43" value="- double CurrentX" style="text;html=1;align=center;verticalAlign=middle;resizable=0;points=[];autosize=1;strokeColor=none;fillColor=none;" vertex="1" parent="WfAL3rUn8waLh1sTcTxn-35">
          <mxGeometry y="58" width="120" height="30" as="geometry" />
        </mxCell>
        <mxCell id="WfAL3rUn8waLh1sTcTxn-44" value="- double CurrentY" style="text;html=1;align=center;verticalAlign=middle;resizable=0;points=[];autosize=1;strokeColor=none;fillColor=none;" vertex="1" parent="WfAL3rUn8waLh1sTcTxn-35">
          <mxGeometry y="70" width="120" height="30" as="geometry" />
        </mxCell>
        <mxCell id="WfAL3rUn8waLh1sTcTxn-45" value="- double Rotation" style="text;html=1;align=center;verticalAlign=middle;resizable=0;points=[];autosize=1;strokeColor=none;fillColor=none;" vertex="1" parent="WfAL3rUn8waLh1sTcTxn-35">
          <mxGeometry y="40" width="110" height="30" as="geometry" />
        </mxCell>
        <mxCell id="WfAL3rUn8waLh1sTcTxn-47" value="+ MoveToLocation(double, double): boolean" style="text;html=1;align=center;verticalAlign=middle;resizable=0;points=[];autosize=1;strokeColor=none;fillColor=none;" vertex="1" parent="WfAL3rUn8waLh1sTcTxn-35">
          <mxGeometry y="140" width="260" height="30" as="geometry" />
        </mxCell>
        <mxCell id="WfAL3rUn8waLh1sTcTxn-48" value="+ MapRoom(): boolean" style="text;html=1;align=center;verticalAlign=middle;resizable=0;points=[];autosize=1;strokeColor=none;fillColor=none;" vertex="1" parent="WfAL3rUn8waLh1sTcTxn-35">
          <mxGeometry y="158" width="150" height="30" as="geometry" />
        </mxCell>
        <mxCell id="WfAL3rUn8waLh1sTcTxn-49" value="+ EmergancyStop(): void" style="text;html=1;align=center;verticalAlign=middle;resizable=0;points=[];autosize=1;strokeColor=none;fillColor=none;" vertex="1" parent="WfAL3rUn8waLh1sTcTxn-35">
          <mxGeometry y="180" width="160" height="30" as="geometry" />
        </mxCell>
        <mxCell id="WfAL3rUn8waLh1sTcTxn-50" value="+ FindRouteToPosition(): Route" style="text;html=1;align=center;verticalAlign=middle;resizable=0;points=[];autosize=1;strokeColor=none;fillColor=none;" vertex="1" parent="WfAL3rUn8waLh1sTcTxn-35">
          <mxGeometry x="5" y="198" width="190" height="30" as="geometry" />
        </mxCell>
        <mxCell id="WfAL3rUn8waLh1sTcTxn-51" value="+ FollowRoute(Route): boolean" style="text;html=1;align=center;verticalAlign=middle;resizable=0;points=[];autosize=1;strokeColor=none;fillColor=none;" vertex="1" parent="WfAL3rUn8waLh1sTcTxn-35">
          <mxGeometry x="-5" y="218" width="190" height="30" as="geometry" />
        </mxCell>
        <mxCell id="WfAL3rUn8waLh1sTcTxn-55" value="- double WheelSpeed1" style="text;html=1;align=center;verticalAlign=middle;resizable=0;points=[];autosize=1;strokeColor=none;fillColor=none;" vertex="1" parent="WfAL3rUn8waLh1sTcTxn-35">
          <mxGeometry y="80" width="150" height="30" as="geometry" />
        </mxCell>
        <mxCell id="WfAL3rUn8waLh1sTcTxn-56" value="- double WheelSpeed2" style="text;html=1;align=center;verticalAlign=middle;resizable=0;points=[];autosize=1;strokeColor=none;fillColor=none;" vertex="1" parent="WfAL3rUn8waLh1sTcTxn-35">
          <mxGeometry y="98" width="150" height="30" as="geometry" />
        </mxCell>
        <mxCell id="WfAL3rUn8waLh1sTcTxn-46" value="+ RotateDegrees(double): boolean" style="text;html=1;align=center;verticalAlign=middle;resizable=0;points=[];autosize=1;strokeColor=none;fillColor=none;" vertex="1" parent="WfAL3rUn8waLh1sTcTxn-35">
          <mxGeometry y="115" width="210" height="30" as="geometry" />
        </mxCell>
        <mxCell id="WfAL3rUn8waLh1sTcTxn-41" value="+ CalibrateWheelConfig(): boolean" style="text;html=1;align=center;verticalAlign=middle;resizable=0;points=[];autosize=1;strokeColor=none;fillColor=none;" vertex="1" parent="WfAL3rUn8waLh1sTcTxn-35">
          <mxGeometry y="240" width="210" height="30" as="geometry" />
        </mxCell>
        <mxCell id="WfAL3rUn8waLh1sTcTxn-36" value="RobotController" style="swimlane;whiteSpace=wrap;html=1;" vertex="1" parent="1">
          <mxGeometry x="320" y="500" width="200" height="200" as="geometry" />
        </mxCell>
        <mxCell id="WfAL3rUn8waLh1sTcTxn-37" value="+EventHandler: eventHandler" style="text;html=1;align=center;verticalAlign=middle;resizable=0;points=[];autosize=1;strokeColor=none;fillColor=none;" vertex="1" parent="WfAL3rUn8waLh1sTcTxn-36">
          <mxGeometry y="28" width="180" height="30" as="geometry" />
        </mxCell>
        <mxCell id="WfAL3rUn8waLh1sTcTxn-69" value="- IRobotSensor DistanceSensor1" style="text;html=1;align=center;verticalAlign=middle;resizable=0;points=[];autosize=1;strokeColor=none;fillColor=none;" vertex="1" parent="WfAL3rUn8waLh1sTcTxn-36">
          <mxGeometry y="40" width="200" height="30" as="geometry" />
        </mxCell>
        <mxCell id="WfAL3rUn8waLh1sTcTxn-70" value="- IRobotSensor DistanceSensor2" style="text;html=1;align=center;verticalAlign=middle;resizable=0;points=[];autosize=1;strokeColor=none;fillColor=none;" vertex="1" parent="WfAL3rUn8waLh1sTcTxn-36">
          <mxGeometry y="55" width="200" height="30" as="geometry" />
        </mxCell>
        <mxCell id="WfAL3rUn8waLh1sTcTxn-71" value="- IRobotSensor DistanceSensor3" style="text;html=1;align=center;verticalAlign=middle;resizable=0;points=[];autosize=1;strokeColor=none;fillColor=none;" vertex="1" parent="WfAL3rUn8waLh1sTcTxn-36">
          <mxGeometry y="70" width="200" height="30" as="geometry" />
        </mxCell>
        <mxCell id="WfAL3rUn8waLh1sTcTxn-72" value="- IRobotSensor LightSensor" style="text;html=1;align=center;verticalAlign=middle;resizable=0;points=[];autosize=1;strokeColor=none;fillColor=none;" vertex="1" parent="WfAL3rUn8waLh1sTcTxn-36">
          <mxGeometry y="85" width="170" height="30" as="geometry" />
        </mxCell>
        <mxCell id="WfAL3rUn8waLh1sTcTxn-73" value="+ GetDistances(): object" style="text;html=1;align=center;verticalAlign=middle;resizable=0;points=[];autosize=1;strokeColor=none;fillColor=none;" vertex="1" parent="WfAL3rUn8waLh1sTcTxn-36">
          <mxGeometry y="120" width="150" height="30" as="geometry" />
        </mxCell>
        <mxCell id="WfAL3rUn8waLh1sTcTxn-81" value="-&amp;nbsp;LampSensor&amp;nbsp;LampSensor" style="text;html=1;align=center;verticalAlign=middle;resizable=0;points=[];autosize=1;strokeColor=none;fillColor=none;" vertex="1" parent="WfAL3rUn8waLh1sTcTxn-36">
          <mxGeometry y="100" width="170" height="30" as="geometry" />
        </mxCell>
        <mxCell id="WfAL3rUn8waLh1sTcTxn-82" value="+ CalculateLightDetection()" style="text;html=1;align=center;verticalAlign=middle;resizable=0;points=[];autosize=1;strokeColor=none;fillColor=none;" vertex="1" parent="WfAL3rUn8waLh1sTcTxn-36">
          <mxGeometry y="140" width="170" height="30" as="geometry" />
        </mxCell>
        <mxCell id="WfAL3rUn8waLh1sTcTxn-39" style="edgeStyle=orthogonalEdgeStyle;rounded=0;orthogonalLoop=1;jettySize=auto;html=1;exitX=0.5;exitY=1;exitDx=0;exitDy=0;entryX=0.7;entryY=0;entryDx=0;entryDy=0;entryPerimeter=0;endSize=22;endArrow=block;endFill=0;" edge="1" parent="1" source="WfAL3rUn8waLh1sTcTxn-35" target="WfAL3rUn8waLh1sTcTxn-36">
          <mxGeometry relative="1" as="geometry" />
        </mxCell>
        <mxCell id="WfAL3rUn8waLh1sTcTxn-60" style="edgeStyle=orthogonalEdgeStyle;rounded=0;orthogonalLoop=1;jettySize=auto;html=1;entryX=0;entryY=0.5;entryDx=0;entryDy=0;endSize=22;endArrow=diamondThin;endFill=1;" edge="1" parent="1" target="WfAL3rUn8waLh1sTcTxn-36">
          <mxGeometry relative="1" as="geometry">
            <mxPoint x="250" y="620" as="sourcePoint" />
          </mxGeometry>
        </mxCell>
        <mxCell id="WfAL3rUn8waLh1sTcTxn-58" value="&amp;lt;&amp;lt;IRobotSensor&amp;gt;&amp;gt;" style="swimlane;whiteSpace=wrap;html=1;" vertex="1" parent="1">
          <mxGeometry x="50" y="530" width="200" height="200" as="geometry" />
        </mxCell>
        <mxCell id="WfAL3rUn8waLh1sTcTxn-61" value="+ GetMeassurement(): double" style="text;html=1;align=center;verticalAlign=middle;resizable=0;points=[];autosize=1;strokeColor=none;fillColor=none;" vertex="1" parent="WfAL3rUn8waLh1sTcTxn-58">
          <mxGeometry y="28" width="180" height="30" as="geometry" />
        </mxCell>
        <mxCell id="WfAL3rUn8waLh1sTcTxn-63" style="edgeStyle=orthogonalEdgeStyle;rounded=0;orthogonalLoop=1;jettySize=auto;html=1;entryX=0.5;entryY=1;entryDx=0;entryDy=0;endSize=22;endArrow=block;endFill=0;" edge="1" parent="1" source="WfAL3rUn8waLh1sTcTxn-62" target="WfAL3rUn8waLh1sTcTxn-58">
          <mxGeometry relative="1" as="geometry" />
        </mxCell>
        <mxCell id="WfAL3rUn8waLh1sTcTxn-62" value="DistanceSensor: IRobotSensor" style="swimlane;whiteSpace=wrap;html=1;" vertex="1" parent="1">
          <mxGeometry x="-80" y="830" width="200" height="200" as="geometry" />
        </mxCell>
        <mxCell id="WfAL3rUn8waLh1sTcTxn-64" value="+ GetMeassurement(): double" style="text;html=1;align=center;verticalAlign=middle;resizable=0;points=[];autosize=1;strokeColor=none;fillColor=none;" vertex="1" parent="WfAL3rUn8waLh1sTcTxn-62">
          <mxGeometry y="30" width="180" height="30" as="geometry" />
        </mxCell>
        <mxCell id="WfAL3rUn8waLh1sTcTxn-67" style="edgeStyle=orthogonalEdgeStyle;rounded=0;orthogonalLoop=1;jettySize=auto;html=1;endArrow=block;endFill=0;endSize=22;" edge="1" parent="1" source="WfAL3rUn8waLh1sTcTxn-65">
          <mxGeometry relative="1" as="geometry">
            <mxPoint x="150" y="730" as="targetPoint" />
          </mxGeometry>
        </mxCell>
        <mxCell id="WfAL3rUn8waLh1sTcTxn-65" value="LightSensor: IRobotSensor" style="swimlane;whiteSpace=wrap;html=1;" vertex="1" parent="1">
          <mxGeometry x="180" y="830" width="200" height="200" as="geometry" />
        </mxCell>
        <mxCell id="WfAL3rUn8waLh1sTcTxn-66" value="+ GetMeassurement(): double" style="text;html=1;align=center;verticalAlign=middle;resizable=0;points=[];autosize=1;strokeColor=none;fillColor=none;" vertex="1" parent="WfAL3rUn8waLh1sTcTxn-65">
          <mxGeometry y="30" width="180" height="30" as="geometry" />
        </mxCell>
        <mxCell id="WfAL3rUn8waLh1sTcTxn-79" style="edgeStyle=orthogonalEdgeStyle;rounded=0;orthogonalLoop=1;jettySize=auto;html=1;endSize=22;endArrow=block;endFill=0;" edge="1" parent="1" source="WfAL3rUn8waLh1sTcTxn-74">
          <mxGeometry relative="1" as="geometry">
            <mxPoint x="180" y="730" as="targetPoint" />
            <Array as="points">
              <mxPoint x="514" y="790" />
              <mxPoint x="180" y="790" />
            </Array>
          </mxGeometry>
        </mxCell>
        <mxCell id="WfAL3rUn8waLh1sTcTxn-80" style="edgeStyle=orthogonalEdgeStyle;rounded=0;orthogonalLoop=1;jettySize=auto;html=1;entryX=0.5;entryY=1;entryDx=0;entryDy=0;endSize=22;endArrow=diamondThin;endFill=1;" edge="1" parent="1" source="WfAL3rUn8waLh1sTcTxn-74" target="WfAL3rUn8waLh1sTcTxn-36">
          <mxGeometry relative="1" as="geometry" />
        </mxCell>
        <mxCell id="WfAL3rUn8waLh1sTcTxn-74" value="LampSensor: IRobotSensor" style="swimlane;whiteSpace=wrap;html=1;" vertex="1" parent="1">
          <mxGeometry x="414" y="830" width="200" height="200" as="geometry" />
        </mxCell>
        <mxCell id="WfAL3rUn8waLh1sTcTxn-75" value="+ GetMeassurement(): double" style="text;html=1;align=center;verticalAlign=middle;resizable=0;points=[];autosize=1;strokeColor=none;fillColor=none;" vertex="1" parent="WfAL3rUn8waLh1sTcTxn-74">
          <mxGeometry y="30" width="180" height="30" as="geometry" />
        </mxCell>
        <mxCell id="WfAL3rUn8waLh1sTcTxn-78" value="+ SetMode(boolean): void" style="text;html=1;align=center;verticalAlign=middle;resizable=0;points=[];autosize=1;strokeColor=none;fillColor=none;" vertex="1" parent="WfAL3rUn8waLh1sTcTxn-74">
          <mxGeometry y="50" width="160" height="30" as="geometry" />
        </mxCell>
      </root>
    </mxGraphModel>
  </diagram>
</mxfile>
